<svg width="166" height="19" viewBox="0 0 166 19" fill="none" xmlns="http://www.w3.org/2000/svg">
<path d="M15.232 5.904C13.792 5.072 12.248 4.536 10.6 4.296V18H6.712V4.296C5.064 4.536 3.512 5.072 2.056 5.904L0.736 3C1.888 2.312 3.136 1.792 4.48 1.44C5.824 1.088 7.208 0.912 8.632 0.912C10.072 0.912 11.464 1.088 12.808 1.44C14.168 1.792 15.416 2.312 16.552 3L15.232 5.904ZM29.0007 18L25.7607 13.32H25.5687H22.1847V18H18.2967V1.2H25.5687C27.0567 1.2 28.3447 1.448 29.4327 1.944C30.5367 2.44 31.3847 3.144 31.9767 4.056C32.5687 4.968 32.8647 6.048 32.8647 7.296C32.8647 8.544 32.5607 9.624 31.9527 10.536C31.3607 11.432 30.5127 12.12 29.4087 12.6L33.1767 18H29.0007ZM28.9287 7.296C28.9287 6.352 28.6247 5.632 28.0167 5.136C27.4087 4.624 26.5207 4.368 25.3527 4.368H22.1847V10.224H25.3527C26.5207 10.224 27.4087 9.968 28.0167 9.456C28.6247 8.944 28.9287 8.224 28.9287 7.296ZM41.7051 4.32V14.88H44.6091V18H34.8891V14.88H37.8171V4.32H34.8891V1.2H44.6091V4.32H41.7051ZM54.8187 1.2C56.3067 1.2 57.5947 1.448 58.6827 1.944C59.7867 2.44 60.6347 3.144 61.2267 4.056C61.8187 4.968 62.1147 6.048 62.1147 7.296C62.1147 8.528 61.8187 9.608 61.2267 10.536C60.6347 11.448 59.7867 12.152 58.6827 12.648C57.5947 13.128 56.3067 13.368 54.8187 13.368H51.4347V18H47.5467V1.2H54.8187ZM54.6027 10.2C55.7707 10.2 56.6587 9.952 57.2667 9.456C57.8747 8.944 58.1787 8.224 58.1787 7.296C58.1787 6.352 57.8747 5.632 57.2667 5.136C56.6587 4.624 55.7707 4.368 54.6027 4.368H51.4347V10.2H54.6027Z" fill="#2C696F"/>
<path d="M84.8337 18.288L82.8177 16.416C81.2177 17.664 79.3457 18.288 77.2017 18.288C75.9857 18.288 74.8897 18.096 73.9137 17.712C72.9377 17.312 72.1697 16.76 71.6097 16.056C71.0657 15.352 70.7937 14.56 70.7937 13.68C70.7937 12.64 71.0817 11.728 71.6577 10.944C72.2497 10.144 73.1937 9.384 74.4897 8.664C73.8817 8.04 73.4417 7.448 73.1697 6.888C72.8977 6.312 72.7617 5.72 72.7617 5.112C72.7617 4.296 72.9777 3.576 73.4097 2.952C73.8417 2.328 74.4497 1.848 75.2337 1.512C76.0337 1.16 76.9537 0.983999 77.9937 0.983999C79.4497 0.983999 80.6177 1.336 81.4977 2.04C82.3777 2.728 82.8177 3.664 82.8177 4.848C82.8177 5.712 82.5537 6.48 82.0257 7.152C81.5137 7.824 80.6817 8.472 79.5297 9.096L82.6017 11.952C82.9697 11.184 83.2497 10.312 83.4417 9.336L86.4417 10.272C86.1217 11.76 85.6097 13.032 84.9057 14.088L86.8737 15.912L84.8337 18.288ZM77.9937 3.528C77.4337 3.528 76.9857 3.672 76.6497 3.96C76.3297 4.248 76.1697 4.616 76.1697 5.064C76.1697 5.4 76.2577 5.72 76.4337 6.024C76.6097 6.312 76.9537 6.704 77.4657 7.2C78.2817 6.768 78.8497 6.384 79.1697 6.048C79.4897 5.696 79.6497 5.32 79.6497 4.92C79.6497 4.504 79.5057 4.168 79.2177 3.912C78.9297 3.656 78.5217 3.528 77.9937 3.528ZM77.4657 15.36C78.6337 15.36 79.6817 15.032 80.6097 14.376L76.5537 10.584C75.8017 11.016 75.2657 11.44 74.9457 11.856C74.6257 12.272 74.4657 12.744 74.4657 13.272C74.4657 13.896 74.7377 14.4 75.2817 14.784C75.8257 15.168 76.5537 15.36 77.4657 15.36ZM108.42 5.904C106.98 5.072 105.436 4.536 103.788 4.296V18H99.8995V4.296C98.2515 4.536 96.6995 5.072 95.2435 5.904L93.9235 3C95.0755 2.312 96.3235 1.792 97.6675 1.44C99.0115 1.088 100.396 0.912 101.82 0.912C103.26 0.912 104.652 1.088 105.996 1.44C107.356 1.792 108.604 2.312 109.74 3L108.42 5.904ZM119.386 18.288C117.642 18.288 116.066 17.912 114.658 17.16C113.266 16.408 112.17 15.376 111.37 14.064C110.586 12.736 110.194 11.248 110.194 9.6C110.194 7.952 110.586 6.472 111.37 5.16C112.17 3.832 113.266 2.792 114.658 2.04C116.066 1.288 117.642 0.912 119.386 0.912C121.13 0.912 122.698 1.288 124.09 2.04C125.482 2.792 126.578 3.832 127.378 5.16C128.178 6.472 128.578 7.952 128.578 9.6C128.578 11.248 128.178 12.736 127.378 14.064C126.578 15.376 125.482 16.408 124.09 17.16C122.698 17.912 121.13 18.288 119.386 18.288ZM119.386 14.976C120.378 14.976 121.274 14.752 122.074 14.304C122.874 13.84 123.498 13.2 123.946 12.384C124.41 11.568 124.642 10.64 124.642 9.6C124.642 8.56 124.41 7.632 123.946 6.816C123.498 6 122.874 5.368 122.074 4.92C121.274 4.456 120.378 4.224 119.386 4.224C118.394 4.224 117.498 4.456 116.698 4.92C115.898 5.368 115.266 6 114.802 6.816C114.354 7.632 114.13 8.56 114.13 9.6C114.13 10.64 114.354 11.568 114.802 12.384C115.266 13.2 115.898 13.84 116.698 14.304C117.498 14.752 118.394 14.976 119.386 14.976ZM146.524 1.2V18H142.756V15.96C141.604 17.512 139.908 18.288 137.668 18.288C135.684 18.288 134.132 17.664 133.012 16.416C131.908 15.152 131.356 13.36 131.356 11.04V1.2H135.244V10.92C135.244 12.264 135.556 13.28 136.18 13.968C136.82 14.64 137.684 14.976 138.772 14.976C139.94 14.976 140.876 14.616 141.58 13.896C142.284 13.16 142.636 12.08 142.636 10.656V1.2H146.524ZM161.212 18L157.972 13.32H157.78H154.396V18H150.508V1.2H157.78C159.268 1.2 160.556 1.448 161.644 1.944C162.748 2.44 163.596 3.144 164.188 4.056C164.78 4.968 165.076 6.048 165.076 7.296C165.076 8.544 164.772 9.624 164.164 10.536C163.572 11.432 162.724 12.12 161.62 12.6L165.388 18H161.212ZM161.14 7.296C161.14 6.352 160.836 5.632 160.228 5.136C159.62 4.624 158.732 4.368 157.564 4.368H154.396V10.224H157.564C158.732 10.224 159.62 9.968 160.228 9.456C160.836 8.944 161.14 8.224 161.14 7.296Z" fill="black"/>
</svg>
